
<svg width="1600" height="1000">

<path
style="fill:#1f74e4;stroke:#000000;stroke-width:0.25px;stroke-linecap:butt;stroke-linejoin:miter;stroke-opacity:1"
d="M 898.0000,404.0000 922.0000,429.0000 886.0000,431.0000 860.0000,450.0000 846.0000,481.0000 818.0000,489.0000 790.0000,501.0000 760.0000,492.0000 732.0000,496.0000 731.0000,462.0000 757.0000,445.0000 746.0000,415.0000 781.0000,397.0000 790.0000,370.0000 806.0000,356.0000 807.0000,331.0000 827.0000,315.0000 863.0000,317.0000 890.0000,299.0000 893.0000,331.0000 891.0000,373.0000  z"
id="path_0" />


<path
style="fill:#b52593;stroke:#000000;stroke-width:0.25px;stroke-linecap:butt;stroke-linejoin:miter;stroke-opacity:1"
d="M 968.0000,513.0000 985.0000,526.0000 985.0000,545.0000 984.0000,565.0000 987.0000,602.0000 966.0000,583.0000 936.0000,584.0000 903.0000,578.0000 871.0000,554.0000 827.0000,554.0000 795.0000,553.0000 768.0000,571.0000 773.0000,534.0000 757.0000,514.0000 760.0000,492.0000 790.0000,501.0000 818.0000,489.0000 846.0000,481.0000 860.0000,450.0000 886.0000,431.0000 922.0000,429.0000 931.0000,456.0000 941.0000,476.0000 968.0000,488.0000  z"
id="path_1" />


<path
style="fill:#b8eba2;stroke:#000000;stroke-width:0.25px;stroke-linecap:butt;stroke-linejoin:miter;stroke-opacity:1"
d="M 745.0000,608.0000 768.0000,571.0000 773.0000,534.0000 757.0000,514.0000 760.0000,492.0000 732.0000,496.0000 731.0000,462.0000 707.0000,448.0000 686.0000,434.0000 667.0000,420.0000 640.0000,433.0000 615.0000,449.0000 607.0000,471.0000 583.0000,486.0000 553.0000,507.0000 522.0000,537.0000 493.0000,577.0000 513.0000,605.0000 542.0000,605.0000 565.0000,628.0000 600.0000,618.0000 626.0000,648.0000 649.0000,631.0000 665.0000,613.0000 691.0000,635.0000 719.0000,635.0000  z"
id="path_2" />


<path
style="fill:#947713;stroke:#000000;stroke-width:0.25px;stroke-linecap:butt;stroke-linejoin:miter;stroke-opacity:1"
d="M 640.0000,433.0000 651.0000,399.0000 629.0000,377.0000 641.0000,346.0000 631.0000,313.0000 628.0000,276.0000 660.0000,264.0000 662.0000,244.0000 665.0000,224.0000 700.0000,227.0000 741.0000,242.0000 760.0000,276.0000 787.0000,303.0000 827.0000,315.0000 807.0000,331.0000 806.0000,356.0000 790.0000,370.0000 781.0000,397.0000 746.0000,415.0000 757.0000,445.0000 731.0000,462.0000 707.0000,448.0000 686.0000,434.0000 667.0000,420.0000  z"
id="path_3" />


<path
style="fill:#d546a5;stroke:#000000;stroke-width:0.25px;stroke-linecap:butt;stroke-linejoin:miter;stroke-opacity:1"
d="M 912.0000,637.0000 939.0000,621.0000 964.0000,618.0000 987.0000,602.0000 966.0000,583.0000 936.0000,584.0000 903.0000,578.0000 871.0000,554.0000 827.0000,554.0000 795.0000,553.0000 768.0000,571.0000 745.0000,608.0000 719.0000,635.0000 741.0000,639.0000 757.0000,657.0000 773.0000,677.0000 781.0000,704.0000 804.0000,700.0000 823.0000,721.0000 847.0000,703.0000 870.0000,710.0000 893.0000,694.0000 913.0000,672.0000  z"
id="path_4" />


<path
style="fill:#7e41e9;stroke:#000000;stroke-width:0.25px;stroke-linecap:butt;stroke-linejoin:miter;stroke-opacity:1"
d="M 610.0000,686.0000 623.0000,724.0000 612.0000,762.0000 638.0000,757.0000 666.0000,759.0000 691.0000,753.0000 699.0000,731.0000 723.0000,726.0000 744.0000,744.0000 767.0000,727.0000 781.0000,704.0000 773.0000,677.0000 757.0000,657.0000 741.0000,639.0000 719.0000,635.0000 691.0000,635.0000 665.0000,613.0000 649.0000,631.0000 626.0000,648.0000  z"
id="path_5" />


<path
style="fill:#734284;stroke:#000000;stroke-width:0.25px;stroke-linecap:butt;stroke-linejoin:miter;stroke-opacity:1"
d="M 898.0000,404.0000 922.0000,429.0000 931.0000,456.0000 941.0000,476.0000 968.0000,488.0000 976.0000,456.0000 1007.0000,449.0000 1032.0000,434.0000 1051.0000,396.0000 1024.0000,398.0000 1024.0000,359.0000 1021.0000,329.0000 1037.0000,305.0000 1025.0000,274.0000 1010.0000,252.0000 981.0000,245.0000 942.0000,236.0000 926.0000,265.0000 914.0000,287.0000 890.0000,299.0000 893.0000,331.0000 891.0000,373.0000  z"
id="path_6" />


<path
style="fill:#3212b9;stroke:#000000;stroke-width:0.25px;stroke-linecap:butt;stroke-linejoin:miter;stroke-opacity:1"
d="M 640.0000,433.0000 651.0000,399.0000 628.0000,408.0000 605.0000,399.0000 573.0000,408.0000 543.0000,386.0000 534.0000,353.0000 490.0000,366.0000 452.0000,364.0000 421.0000,344.0000 422.0000,370.0000 438.0000,394.0000 441.0000,432.0000 425.0000,467.0000 423.0000,500.0000 422.0000,532.0000 432.0000,560.0000 415.0000,579.0000 438.0000,590.0000 462.0000,606.0000 493.0000,577.0000 522.0000,537.0000 553.0000,507.0000 583.0000,486.0000 607.0000,471.0000 615.0000,449.0000  z"
id="path_7" />


<path
style="fill:#7a5415;stroke:#000000;stroke-width:0.25px;stroke-linecap:butt;stroke-linejoin:miter;stroke-opacity:1"
d="M 444.0000,291.0000 464.0000,266.0000 496.0000,256.0000 506.0000,231.0000 533.0000,223.0000 537.0000,197.0000 559.0000,214.0000 586.0000,218.0000 592.0000,240.0000 611.0000,251.0000 638.0000,239.0000 662.0000,244.0000 660.0000,264.0000 628.0000,276.0000 631.0000,313.0000 641.0000,346.0000 629.0000,377.0000 651.0000,399.0000 628.0000,408.0000 605.0000,399.0000 573.0000,408.0000 543.0000,386.0000 534.0000,353.0000 490.0000,366.0000 452.0000,364.0000 421.0000,344.0000 416.0000,304.0000  z"
id="path_8" />


<path
style="fill:#3798d2;stroke:#000000;stroke-width:0.25px;stroke-linecap:butt;stroke-linejoin:miter;stroke-opacity:1"
d="M 926.0000,265.0000 942.0000,236.0000 981.0000,245.0000 973.0000,214.0000 941.0000,204.0000 937.0000,176.0000 914.0000,160.0000 906.0000,136.0000 909.0000,108.0000 885.0000,85.0000 856.0000,73.0000 829.0000,82.0000 803.0000,95.0000 777.0000,74.0000 751.0000,89.0000 749.0000,116.0000 734.0000,143.0000 726.0000,171.0000 702.0000,180.0000 697.0000,206.0000 700.0000,227.0000 741.0000,242.0000 760.0000,276.0000 787.0000,303.0000 827.0000,315.0000 863.0000,317.0000 890.0000,299.0000 914.0000,287.0000  z"
id="path_9" />


<path
style="fill:#c885ef;stroke:#000000;stroke-width:0.25px;stroke-linecap:butt;stroke-linejoin:miter;stroke-opacity:1"
d="M 1138.0000,603.0000 1150.0000,577.0000 1164.0000,551.0000 1156.0000,523.0000 1150.0000,500.0000 1122.0000,490.0000 1108.0000,464.0000 1097.0000,421.0000 1059.0000,418.0000 1051.0000,396.0000 1032.0000,434.0000 1007.0000,449.0000 976.0000,456.0000 968.0000,488.0000 968.0000,513.0000 985.0000,526.0000 985.0000,545.0000 984.0000,565.0000 987.0000,602.0000 1013.0000,607.0000 1036.0000,628.0000 1063.0000,648.0000 1094.0000,628.0000 1116.0000,620.0000  z"
id="path_10" />


<path
style="fill:#4e5e45;stroke:#000000;stroke-width:0.25px;stroke-linecap:butt;stroke-linejoin:miter;stroke-opacity:1"
d="M 912.0000,637.0000 939.0000,621.0000 964.0000,618.0000 987.0000,602.0000 1013.0000,607.0000 1036.0000,628.0000 1063.0000,648.0000 1075.0000,685.0000 1037.0000,700.0000 1040.0000,733.0000 1017.0000,744.0000 995.0000,751.0000 991.0000,777.0000 963.0000,775.0000 945.0000,796.0000 948.0000,828.0000 917.0000,837.0000 902.0000,809.0000 891.0000,781.0000 858.0000,768.0000 856.0000,735.0000 823.0000,721.0000 847.0000,703.0000 870.0000,710.0000 893.0000,694.0000 913.0000,672.0000  z"
id="path_11" />


<path
style="fill:#67ae6b;stroke:#000000;stroke-width:0.25px;stroke-linecap:butt;stroke-linejoin:miter;stroke-opacity:1"
d="M 698.0000,927.0000 712.0000,902.0000 735.0000,894.0000 748.0000,915.0000 775.0000,909.0000 787.0000,888.0000 803.0000,878.0000 803.0000,859.0000 828.0000,850.0000 861.0000,863.0000 883.0000,834.0000 917.0000,837.0000 902.0000,809.0000 891.0000,781.0000 858.0000,768.0000 856.0000,735.0000 823.0000,721.0000 804.0000,700.0000 781.0000,704.0000 767.0000,727.0000 770.0000,750.0000 750.0000,766.0000 745.0000,790.0000 735.0000,815.0000 711.0000,823.0000 702.0000,850.0000 710.0000,878.0000 694.0000,896.0000  z"
id="path_12" />


<path
style="fill:#415083;stroke:#000000;stroke-width:0.25px;stroke-linecap:butt;stroke-linejoin:miter;stroke-opacity:1"
d="M 531.0000,797.0000 544.0000,811.0000 549.0000,826.0000 576.0000,834.0000 586.0000,818.0000 585.0000,797.0000 601.0000,785.0000 612.0000,762.0000 623.0000,724.0000 610.0000,686.0000 626.0000,648.0000 600.0000,618.0000 565.0000,628.0000 542.0000,605.0000 513.0000,605.0000 493.0000,577.0000 462.0000,606.0000 438.0000,590.0000 415.0000,579.0000 414.0000,603.0000 429.0000,618.0000 411.0000,642.0000 444.0000,638.0000 458.0000,664.0000 470.0000,687.0000 470.0000,715.0000 493.0000,737.0000 500.0000,765.0000 533.0000,773.0000  z"
id="path_13" />


<path
style="fill:#565a35;stroke:#000000;stroke-width:0.25px;stroke-linecap:butt;stroke-linejoin:miter;stroke-opacity:1"
d="M 576.0000,834.0000 602.0000,853.0000 625.0000,869.0000 657.0000,856.0000 679.0000,871.0000 694.0000,896.0000 710.0000,878.0000 702.0000,850.0000 711.0000,823.0000 735.0000,815.0000 745.0000,790.0000 750.0000,766.0000 770.0000,750.0000 767.0000,727.0000 744.0000,744.0000 723.0000,726.0000 699.0000,731.0000 691.0000,753.0000 666.0000,759.0000 638.0000,757.0000 612.0000,762.0000 601.0000,785.0000 585.0000,797.0000 586.0000,818.0000  z"
id="path_14" />


<path
style="fill:#9f4f54;stroke:#000000;stroke-width:0.25px;stroke-linecap:butt;stroke-linejoin:miter;stroke-opacity:1"
d="M 1025.0000,274.0000 1048.0000,280.0000 1069.0000,271.0000 1090.0000,268.0000 1100.0000,245.0000 1124.0000,249.0000 1145.0000,238.0000 1167.0000,249.0000 1175.0000,269.0000 1200.0000,267.0000 1214.0000,287.0000 1227.0000,305.0000 1215.0000,322.0000 1210.0000,340.0000 1194.0000,362.0000 1178.0000,388.0000 1148.0000,400.0000 1126.0000,416.0000 1097.0000,421.0000 1059.0000,418.0000 1051.0000,396.0000 1024.0000,398.0000 1024.0000,359.0000 1021.0000,329.0000 1037.0000,305.0000  z"
id="path_15" />


<path
style="fill:#3d59d7;stroke:#000000;stroke-width:0.25px;stroke-linecap:butt;stroke-linejoin:miter;stroke-opacity:1"
d="M 587.0000,69.0000 614.0000,83.0000 639.0000,73.0000 661.0000,74.0000 671.0000,68.0000 695.0000,79.0000 709.0000,58.0000 729.0000,56.0000 750.0000,62.0000 751.0000,89.0000 749.0000,116.0000 734.0000,143.0000 726.0000,171.0000 702.0000,180.0000 697.0000,206.0000 700.0000,227.0000 665.0000,224.0000 662.0000,244.0000 638.0000,239.0000 611.0000,251.0000 592.0000,240.0000 586.0000,218.0000 559.0000,214.0000 537.0000,197.0000 521.0000,173.0000 519.0000,138.0000 507.0000,109.0000 513.0000,76.0000 549.0000,75.0000  z"
id="path_16" />


<path
style="fill:#90193a;stroke:#000000;stroke-width:0.25px;stroke-linecap:butt;stroke-linejoin:miter;stroke-opacity:1"
d="M 1025.0000,274.0000 1048.0000,280.0000 1069.0000,271.0000 1090.0000,268.0000 1100.0000,245.0000 1124.0000,249.0000 1145.0000,238.0000 1143.0000,216.0000 1136.0000,191.0000 1153.0000,171.0000 1138.0000,151.0000 1143.0000,127.0000 1127.0000,113.0000 1120.0000,93.0000 1124.0000,69.0000 1100.0000,53.0000 1077.0000,64.0000 1060.0000,40.0000 1038.0000,41.0000 1022.0000,28.0000 1021.0000,57.0000 1001.0000,66.0000 982.0000,73.0000 970.0000,84.0000 940.0000,89.0000 909.0000,108.0000 906.0000,136.0000 914.0000,160.0000 937.0000,176.0000 941.0000,204.0000 973.0000,214.0000 981.0000,245.0000 1010.0000,252.0000  z"
id="path_17" />


<path
style="fill:#8911f0;stroke:#000000;stroke-width:0.25px;stroke-linecap:butt;stroke-linejoin:miter;stroke-opacity:1"
d="M 1150.0000,577.0000 1182.0000,577.0000 1210.0000,564.0000 1207.0000,602.0000 1241.0000,605.0000 1264.0000,623.0000 1285.0000,650.0000 1268.0000,676.0000 1282.0000,700.0000 1274.0000,722.0000 1252.0000,729.0000 1229.0000,746.0000 1208.0000,768.0000 1205.0000,798.0000 1182.0000,809.0000 1160.0000,792.0000 1134.0000,789.0000 1124.0000,764.0000 1104.0000,749.0000 1107.0000,712.0000 1075.0000,685.0000 1063.0000,648.0000 1094.0000,628.0000 1116.0000,620.0000 1138.0000,603.0000  z"
id="path_18" />


<path
style="fill:#8d48e2;stroke:#000000;stroke-width:0.25px;stroke-linecap:butt;stroke-linejoin:miter;stroke-opacity:1"
d="M 1213.0000,384.0000 1231.0000,408.0000 1232.0000,443.0000 1230.0000,485.0000 1211.0000,524.0000 1210.0000,564.0000 1182.0000,577.0000 1150.0000,577.0000 1164.0000,551.0000 1156.0000,523.0000 1150.0000,500.0000 1122.0000,490.0000 1108.0000,464.0000 1097.0000,421.0000 1126.0000,416.0000 1148.0000,400.0000 1178.0000,388.0000 1194.0000,362.0000 1210.0000,340.0000 1227.0000,359.0000  z"
id="path_19" />


<path
style="fill:#2ac40d;stroke:#000000;stroke-width:0.25px;stroke-linecap:butt;stroke-linejoin:miter;stroke-opacity:1"
d="M 958.0000,853.0000 987.0000,862.0000 1018.0000,860.0000 1046.0000,866.0000 1074.0000,874.0000 1106.0000,883.0000 1094.0000,856.0000 1113.0000,846.0000 1127.0000,836.0000 1139.0000,816.0000 1160.0000,792.0000 1134.0000,789.0000 1124.0000,764.0000 1104.0000,749.0000 1107.0000,712.0000 1075.0000,685.0000 1037.0000,700.0000 1040.0000,733.0000 1017.0000,744.0000 995.0000,751.0000 991.0000,777.0000 963.0000,775.0000 945.0000,796.0000 948.0000,828.0000 917.0000,837.0000 933.0000,859.0000  z"
id="path_20" />


<path
style="fill:#bf1b73;stroke:#000000;stroke-width:0.25px;stroke-linecap:butt;stroke-linejoin:miter;stroke-opacity:1"
d="M 395.0000,588.0000 414.0000,603.0000 415.0000,579.0000 432.0000,560.0000 422.0000,532.0000 423.0000,500.0000 425.0000,467.0000 441.0000,432.0000 438.0000,394.0000 410.0000,388.0000 393.0000,403.0000 370.0000,397.0000 340.0000,406.0000 310.0000,415.0000 275.0000,426.0000 234.0000,429.0000 271.0000,455.0000 269.0000,493.0000 306.0000,513.0000 326.0000,534.0000 339.0000,554.0000 340.0000,589.0000 371.0000,593.0000  z"
id="path_21" />


<path
style="fill:#04c1c1;stroke:#000000;stroke-width:0.25px;stroke-linecap:butt;stroke-linejoin:miter;stroke-opacity:1"
d="M 444.0000,291.0000 464.0000,266.0000 496.0000,256.0000 506.0000,231.0000 533.0000,223.0000 537.0000,197.0000 521.0000,173.0000 519.0000,138.0000 507.0000,109.0000 513.0000,76.0000 483.0000,62.0000 457.0000,81.0000 435.0000,62.0000 418.0000,40.0000 376.0000,49.0000 348.0000,71.0000 334.0000,95.0000 348.0000,111.0000 355.0000,131.0000 347.0000,161.0000 363.0000,186.0000 396.0000,179.0000 409.0000,201.0000 408.0000,257.0000 416.0000,304.0000  z"
id="path_22" />


<path
style="fill:#5d070e;stroke:#000000;stroke-width:0.25px;stroke-linecap:butt;stroke-linejoin:miter;stroke-opacity:1"
d="M 710.0000,980.0000 714.0000,954.0000 698.0000,927.0000 712.0000,902.0000 735.0000,894.0000 748.0000,915.0000 775.0000,909.0000 787.0000,888.0000 803.0000,878.0000 803.0000,859.0000 828.0000,850.0000 861.0000,863.0000 883.0000,834.0000 917.0000,837.0000 933.0000,859.0000 928.0000,892.0000 941.0000,934.0000 931.0000,973.0000 908.0000,1004.0000 875.0000,1012.0000 847.0000,1012.0000 819.0000,1018.0000 799.0000,1029.0000 780.0000,1026.0000 774.0000,1006.0000 756.0000,1020.0000 736.0000,1013.0000 731.0000,993.0000  z"
id="path_23" />


<path
style="fill:#acd466;stroke:#000000;stroke-width:0.25px;stroke-linecap:butt;stroke-linejoin:miter;stroke-opacity:1"
d="M 531.0000,797.0000 544.0000,811.0000 549.0000,826.0000 576.0000,834.0000 550.0000,847.0000 533.0000,867.0000 505.0000,872.0000 489.0000,889.0000 459.0000,877.0000 441.0000,846.0000 406.0000,840.0000 402.0000,809.0000 379.0000,784.0000 352.0000,786.0000 376.0000,744.0000 406.0000,711.0000 400.0000,673.0000 411.0000,642.0000 444.0000,638.0000 458.0000,664.0000 470.0000,687.0000 470.0000,715.0000 493.0000,737.0000 500.0000,765.0000 533.0000,773.0000  z"
id="path_24" />


<path
style="fill:#755feb;stroke:#000000;stroke-width:0.25px;stroke-linecap:butt;stroke-linejoin:miter;stroke-opacity:1"
d="M 227.0000,361.0000 249.0000,340.0000 244.0000,304.0000 284.0000,308.0000 319.0000,310.0000 350.0000,311.0000 371.0000,332.0000 394.0000,337.0000 421.0000,344.0000 422.0000,370.0000 438.0000,394.0000 410.0000,388.0000 393.0000,403.0000 370.0000,397.0000 340.0000,406.0000 310.0000,415.0000 275.0000,426.0000 234.0000,429.0000 252.0000,404.0000 240.0000,382.0000  z"
id="path_25" />


<path
style="fill:#88f20f;stroke:#000000;stroke-width:0.25px;stroke-linecap:butt;stroke-linejoin:miter;stroke-opacity:1"
d="M 395.0000,588.0000 414.0000,603.0000 429.0000,618.0000 411.0000,642.0000 400.0000,673.0000 406.0000,711.0000 376.0000,744.0000 352.0000,786.0000 327.0000,808.0000 307.0000,822.0000 284.0000,819.0000 267.0000,847.0000 247.0000,830.0000 228.0000,831.0000 208.0000,821.0000 198.0000,792.0000 182.0000,763.0000 148.0000,754.0000 171.0000,739.0000 198.0000,734.0000 220.0000,708.0000 243.0000,690.0000 256.0000,663.0000 284.0000,664.0000 289.0000,640.0000 311.0000,632.0000 339.0000,624.0000 362.0000,613.0000 371.0000,593.0000  z"
id="path_26" />


<path
style="fill:#a003a1;stroke:#000000;stroke-width:0.25px;stroke-linecap:butt;stroke-linejoin:miter;stroke-opacity:1"
d="M 710.0000,980.0000 714.0000,954.0000 698.0000,927.0000 694.0000,896.0000 679.0000,871.0000 657.0000,856.0000 625.0000,869.0000 602.0000,853.0000 591.0000,877.0000 579.0000,906.0000 576.0000,941.0000 603.0000,977.0000 599.0000,1017.0000 631.0000,1009.0000 664.0000,1015.0000 687.0000,1019.0000 709.0000,1009.0000 736.0000,1013.0000 731.0000,993.0000  z"
id="path_27" />


<path
style="fill:#168c49;stroke:#000000;stroke-width:0.25px;stroke-linecap:butt;stroke-linejoin:miter;stroke-opacity:1"
d="M 579.0000,906.0000 591.0000,877.0000 602.0000,853.0000 576.0000,834.0000 550.0000,847.0000 533.0000,867.0000 505.0000,872.0000 489.0000,889.0000 477.0000,916.0000 455.0000,933.0000 446.0000,955.0000 439.0000,977.0000 440.0000,996.0000 457.0000,1009.0000 479.0000,1009.0000 499.0000,1001.0000 527.0000,1020.0000 554.0000,1010.0000 564.0000,1027.0000 599.0000,1017.0000 603.0000,977.0000 576.0000,941.0000  z"
id="path_28" />


<path
style="fill:#4d5bd6;stroke:#000000;stroke-width:0.25px;stroke-linecap:butt;stroke-linejoin:miter;stroke-opacity:1"
d="M 958.0000,853.0000 987.0000,862.0000 1018.0000,860.0000 1046.0000,866.0000 1074.0000,874.0000 1089.0000,904.0000 1092.0000,937.0000 1071.0000,957.0000 1062.0000,982.0000 1053.0000,1008.0000 1029.0000,1024.0000 1004.0000,1016.0000 972.0000,1010.0000 943.0000,1004.0000 908.0000,1004.0000 931.0000,973.0000 941.0000,934.0000 928.0000,892.0000 933.0000,859.0000  z"
id="path_29" />


<path
style="fill:#ec871a;stroke:#000000;stroke-width:0.25px;stroke-linecap:butt;stroke-linejoin:miter;stroke-opacity:1"
d="M 284.0000,110.0000 300.0000,96.0000 334.0000,95.0000 348.0000,111.0000 355.0000,131.0000 347.0000,161.0000 363.0000,186.0000 396.0000,179.0000 409.0000,201.0000 408.0000,257.0000 416.0000,304.0000 421.0000,344.0000 394.0000,337.0000 371.0000,332.0000 350.0000,311.0000 319.0000,310.0000 284.0000,308.0000 244.0000,304.0000 206.0000,278.0000 183.0000,250.0000 196.0000,225.0000 211.0000,207.0000 222.0000,182.0000 255.0000,181.0000 250.0000,138.0000 266.0000,114.0000  z"
id="path_30" />


<path
style="fill:#f61792;stroke:#000000;stroke-width:0.25px;stroke-linecap:butt;stroke-linejoin:miter;stroke-opacity:1"
d="M 799.0000,-26.0000 819.0000,-8.0000 843.0000,-1.0000 855.0000,-21.0000 876.0000,-17.0000 900.0000,-21.0000 895.0000,16.0000 883.0000,53.0000 885.0000,85.0000 856.0000,73.0000 829.0000,82.0000 803.0000,95.0000 777.0000,74.0000 751.0000,89.0000 750.0000,62.0000 742.0000,33.0000 738.0000,0.0000 716.0000,-7.0000 725.0000,-28.0000 749.0000,-30.0000 761.0000,-3.0000 778.0000,-17.0000  z"
id="path_31" />


<path
style="fill:#82d93f;stroke:#000000;stroke-width:0.25px;stroke-linecap:butt;stroke-linejoin:miter;stroke-opacity:1"
d="M 900.0000,-21.0000 926.0000,-4.0000 957.0000,-14.0000 990.0000,-25.0000 1025.0000,-21.0000 1027.0000,4.0000 1022.0000,28.0000 1021.0000,57.0000 1001.0000,66.0000 982.0000,73.0000 970.0000,84.0000 940.0000,89.0000 909.0000,108.0000 885.0000,85.0000 883.0000,53.0000 895.0000,16.0000  z"
id="path_32" />


<path
style="fill:#2f379c;stroke:#000000;stroke-width:0.25px;stroke-linecap:butt;stroke-linejoin:miter;stroke-opacity:1"
d="M 159.0000,597.0000 192.0000,589.0000 219.0000,588.0000 242.0000,576.0000 264.0000,586.0000 287.0000,593.0000 314.0000,581.0000 340.0000,589.0000 371.0000,593.0000 362.0000,613.0000 339.0000,624.0000 311.0000,632.0000 289.0000,640.0000 284.0000,664.0000 256.0000,663.0000 243.0000,690.0000 220.0000,708.0000 198.0000,734.0000 171.0000,739.0000 148.0000,754.0000 155.0000,720.0000 170.0000,689.0000 141.0000,668.0000 139.0000,631.0000 126.0000,592.0000  z"
id="path_33" />


<path
style="fill:#0a3006;stroke:#000000;stroke-width:0.25px;stroke-linecap:butt;stroke-linejoin:miter;stroke-opacity:1"
d="M 675.0000,-34.0000 698.0000,-25.0000 716.0000,-7.0000 738.0000,0.0000 742.0000,33.0000 750.0000,62.0000 729.0000,56.0000 709.0000,58.0000 695.0000,79.0000 671.0000,68.0000 661.0000,74.0000 639.0000,73.0000 614.0000,83.0000 587.0000,69.0000 549.0000,75.0000 513.0000,76.0000 483.0000,62.0000 510.0000,37.0000 524.0000,4.0000 537.0000,-29.0000 558.0000,-12.0000 579.0000,-9.0000 598.0000,-6.0000 619.0000,-21.0000 645.0000,-14.0000  z"
id="path_34" />


<path
style="fill:#25db4c;stroke:#000000;stroke-width:0.25px;stroke-linecap:butt;stroke-linejoin:miter;stroke-opacity:1"
d="M 159.0000,597.0000 192.0000,589.0000 219.0000,588.0000 242.0000,576.0000 264.0000,586.0000 287.0000,593.0000 314.0000,581.0000 340.0000,589.0000 339.0000,554.0000 326.0000,534.0000 306.0000,513.0000 269.0000,493.0000 271.0000,455.0000 234.0000,429.0000 218.0000,458.0000 202.0000,466.0000 190.0000,474.0000 173.0000,472.0000 154.0000,475.0000 134.0000,468.0000 122.0000,487.0000 102.0000,498.0000 76.0000,502.0000 80.0000,533.0000 109.0000,538.0000 129.0000,557.0000 126.0000,592.0000  z"
id="path_35" />


<path
style="fill:#feeda0;stroke:#000000;stroke-width:0.25px;stroke-linecap:butt;stroke-linejoin:miter;stroke-opacity:1"
d="M 1272.0000,582.0000 1303.0000,566.0000 1328.0000,550.0000 1350.0000,544.0000 1360.0000,523.0000 1371.0000,507.0000 1389.0000,509.0000 1407.0000,504.0000 1408.0000,484.0000 1409.0000,460.0000 1393.0000,439.0000 1370.0000,457.0000 1346.0000,446.0000 1321.0000,437.0000 1291.0000,432.0000 1259.0000,423.0000 1231.0000,408.0000 1232.0000,443.0000 1230.0000,485.0000 1211.0000,524.0000 1210.0000,564.0000 1207.0000,602.0000 1241.0000,605.0000  z"
id="path_36" />


<path
style="fill:#c33a72;stroke:#000000;stroke-width:0.25px;stroke-linecap:butt;stroke-linejoin:miter;stroke-opacity:1"
d="M 1167.0000,249.0000 1175.0000,269.0000 1200.0000,267.0000 1214.0000,287.0000 1239.0000,285.0000 1249.0000,265.0000 1274.0000,260.0000 1279.0000,236.0000 1279.0000,203.0000 1265.0000,174.0000 1276.0000,152.0000 1264.0000,133.0000 1263.0000,110.0000 1249.0000,69.0000 1243.0000,39.0000 1205.0000,40.0000 1178.0000,29.0000 1169.0000,55.0000 1140.0000,53.0000 1124.0000,69.0000 1120.0000,93.0000 1127.0000,113.0000 1143.0000,127.0000 1138.0000,151.0000 1153.0000,171.0000 1136.0000,191.0000 1143.0000,216.0000 1145.0000,238.0000  z"
id="path_37" />


<path
style="fill:#07baa4;stroke:#000000;stroke-width:0.25px;stroke-linecap:butt;stroke-linejoin:miter;stroke-opacity:1"
d="M 1213.0000,384.0000 1231.0000,408.0000 1259.0000,423.0000 1291.0000,432.0000 1321.0000,437.0000 1346.0000,446.0000 1370.0000,457.0000 1393.0000,439.0000 1389.0000,415.0000 1385.0000,390.0000 1377.0000,360.0000 1361.0000,323.0000 1338.0000,286.0000 1358.0000,254.0000 1325.0000,253.0000 1303.0000,262.0000 1279.0000,236.0000 1274.0000,260.0000 1249.0000,265.0000 1239.0000,285.0000 1214.0000,287.0000 1227.0000,305.0000 1215.0000,322.0000 1210.0000,340.0000 1227.0000,359.0000  z"
id="path_38" />


<path
style="fill:#2ea986;stroke:#000000;stroke-width:0.25px;stroke-linecap:butt;stroke-linejoin:miter;stroke-opacity:1"
d="M 332.0000,895.0000 361.0000,913.0000 389.0000,914.0000 403.0000,926.0000 427.0000,932.0000 455.0000,933.0000 477.0000,916.0000 489.0000,889.0000 459.0000,877.0000 441.0000,846.0000 406.0000,840.0000 402.0000,809.0000 379.0000,784.0000 352.0000,786.0000 327.0000,808.0000 307.0000,822.0000 284.0000,819.0000 267.0000,847.0000 248.0000,885.0000 274.0000,900.0000 301.0000,895.0000  z"
id="path_39" />


<path
style="fill:#ceaa4b;stroke:#000000;stroke-width:0.25px;stroke-linecap:butt;stroke-linejoin:miter;stroke-opacity:1"
d="M 1113.0000,846.0000 1127.0000,836.0000 1139.0000,816.0000 1160.0000,792.0000 1182.0000,809.0000 1204.0000,822.0000 1224.0000,835.0000 1237.0000,858.0000 1261.0000,874.0000 1280.0000,895.0000 1277.0000,917.0000 1252.0000,923.0000 1230.0000,940.0000 1225.0000,972.0000 1205.0000,976.0000 1186.0000,963.0000 1171.0000,944.0000 1149.0000,923.0000 1118.0000,913.0000 1106.0000,883.0000 1094.0000,856.0000  z"
id="path_40" />


<path
style="fill:#45b3da;stroke:#000000;stroke-width:0.25px;stroke-linecap:butt;stroke-linejoin:miter;stroke-opacity:1"
d="M 1272.0000,582.0000 1303.0000,566.0000 1328.0000,550.0000 1350.0000,544.0000 1360.0000,523.0000 1371.0000,507.0000 1389.0000,509.0000 1407.0000,504.0000 1408.0000,484.0000 1434.0000,503.0000 1460.0000,531.0000 1467.0000,575.0000 1491.0000,612.0000 1468.0000,646.0000 1436.0000,670.0000 1417.0000,692.0000 1397.0000,708.0000 1369.0000,707.0000 1350.0000,739.0000 1338.0000,703.0000 1310.0000,696.0000 1294.0000,677.0000 1268.0000,676.0000 1285.0000,650.0000 1264.0000,623.0000 1241.0000,605.0000  z"
id="path_41" />


<path
style="fill:#f87264;stroke:#000000;stroke-width:0.25px;stroke-linecap:butt;stroke-linejoin:miter;stroke-opacity:1"
d="M 1053.0000,1008.0000 1079.0000,1021.0000 1105.0000,1005.0000 1137.0000,1016.0000 1162.0000,1004.0000 1183.0000,1017.0000 1181.0000,989.0000 1205.0000,976.0000 1186.0000,963.0000 1171.0000,944.0000 1149.0000,923.0000 1118.0000,913.0000 1106.0000,883.0000 1074.0000,874.0000 1089.0000,904.0000 1092.0000,937.0000 1071.0000,957.0000 1062.0000,982.0000  z"
id="path_42" />


<path
style="fill:#ee944a;stroke:#000000;stroke-width:0.25px;stroke-linecap:butt;stroke-linejoin:miter;stroke-opacity:1"
d="M 1274.0000,722.0000 1282.0000,700.0000 1268.0000,676.0000 1294.0000,677.0000 1310.0000,696.0000 1338.0000,703.0000 1350.0000,739.0000 1386.0000,762.0000 1404.0000,796.0000 1420.0000,826.0000 1400.0000,853.0000 1378.0000,878.0000 1394.0000,909.0000 1369.0000,904.0000 1340.0000,904.0000 1308.0000,910.0000 1277.0000,917.0000 1280.0000,895.0000 1261.0000,874.0000 1237.0000,858.0000 1224.0000,835.0000 1204.0000,822.0000 1182.0000,809.0000 1205.0000,798.0000 1208.0000,768.0000 1229.0000,746.0000 1252.0000,729.0000  z"
id="path_43" />


<path
style="fill:#a39c4e;stroke:#000000;stroke-width:0.25px;stroke-linecap:butt;stroke-linejoin:miter;stroke-opacity:1"
d="M 1086.0000,-1.0000 1100.0000,-29.0000 1135.0000,-16.0000 1165.0000,-20.0000 1193.0000,-16.0000 1165.0000,4.0000 1178.0000,29.0000 1169.0000,55.0000 1140.0000,53.0000 1124.0000,69.0000 1100.0000,53.0000 1077.0000,64.0000 1060.0000,40.0000 1038.0000,41.0000 1022.0000,28.0000 1027.0000,4.0000 1025.0000,-21.0000 1043.0000,-6.0000 1062.0000,-25.0000  z"
id="path_44" />


<path
style="fill:#9893ca;stroke:#000000;stroke-width:0.25px;stroke-linecap:butt;stroke-linejoin:miter;stroke-opacity:1"
d="M 524.0000,4.0000 537.0000,-29.0000 507.0000,-14.0000 478.0000,-1.0000 458.0000,-20.0000 432.0000,-29.0000 403.0000,-13.0000 368.0000,-37.0000 375.0000,4.0000 376.0000,49.0000 418.0000,40.0000 435.0000,62.0000 457.0000,81.0000 483.0000,62.0000 510.0000,37.0000  z"
id="path_45" />


<path
style="fill:#bb432c;stroke:#000000;stroke-width:0.25px;stroke-linecap:butt;stroke-linejoin:miter;stroke-opacity:1"
d="M 227.0000,361.0000 249.0000,340.0000 244.0000,304.0000 206.0000,278.0000 183.0000,250.0000 149.0000,254.0000 130.0000,277.0000 130.0000,312.0000 124.0000,345.0000 124.0000,375.0000 106.0000,400.0000 100.0000,425.0000 101.0000,456.0000 122.0000,487.0000 134.0000,468.0000 154.0000,475.0000 173.0000,472.0000 190.0000,474.0000 202.0000,466.0000 218.0000,458.0000 234.0000,429.0000 252.0000,404.0000 240.0000,382.0000  z"
id="path_46" />


<path
style="fill:#48cf8d;stroke:#000000;stroke-width:0.25px;stroke-linecap:butt;stroke-linejoin:miter;stroke-opacity:1"
d="M 332.0000,895.0000 361.0000,913.0000 389.0000,914.0000 403.0000,926.0000 427.0000,932.0000 455.0000,933.0000 446.0000,955.0000 439.0000,977.0000 440.0000,996.0000 457.0000,1009.0000 432.0000,1011.0000 408.0000,1001.0000 383.0000,1014.0000 348.0000,1022.0000 307.0000,1031.0000 298.0000,1006.0000 266.0000,1014.0000 255.0000,979.0000 240.0000,951.0000 255.0000,922.0000 248.0000,885.0000 274.0000,900.0000 301.0000,895.0000  z"
id="path_47" />


<path
style="fill:#9cd25e;stroke:#000000;stroke-width:0.25px;stroke-linecap:butt;stroke-linejoin:miter;stroke-opacity:1"
d="M 1382.0000,184.0000 1401.0000,168.0000 1414.0000,137.0000 1437.0000,111.0000 1457.0000,110.0000 1461.0000,82.0000 1441.0000,58.0000 1424.0000,35.0000 1388.0000,34.0000 1348.0000,23.0000 1315.0000,56.0000 1281.0000,82.0000 1249.0000,69.0000 1263.0000,110.0000 1264.0000,133.0000 1276.0000,152.0000 1265.0000,174.0000 1279.0000,203.0000 1279.0000,236.0000 1303.0000,262.0000 1325.0000,253.0000 1358.0000,254.0000 1355.0000,219.0000 1376.0000,204.0000  z"
id="path_48" />


<path
style="fill:#dbb7dc;stroke:#000000;stroke-width:0.25px;stroke-linecap:butt;stroke-linejoin:miter;stroke-opacity:1"
d="M 284.0000,110.0000 300.0000,96.0000 334.0000,95.0000 348.0000,71.0000 376.0000,49.0000 375.0000,4.0000 368.0000,-37.0000 352.0000,-12.0000 328.0000,-5.0000 306.0000,-20.0000 284.0000,-8.0000 252.0000,-14.0000 219.0000,-26.0000 199.0000,-5.0000 204.0000,30.0000 223.0000,57.0000 238.0000,82.0000 266.0000,92.0000  z"
id="path_49" />


<path
style="fill:#a2b88c;stroke:#000000;stroke-width:0.25px;stroke-linecap:butt;stroke-linejoin:miter;stroke-opacity:1"
d="M 1358.0000,254.0000 1397.0000,260.0000 1426.0000,290.0000 1467.0000,307.0000 1500.0000,332.0000 1544.0000,325.0000 1570.0000,360.0000 1585.0000,389.0000 1568.0000,399.0000 1553.0000,412.0000 1533.0000,428.0000 1503.0000,436.0000 1485.0000,467.0000 1463.0000,494.0000 1434.0000,503.0000 1408.0000,484.0000 1409.0000,460.0000 1393.0000,439.0000 1389.0000,415.0000 1385.0000,390.0000 1377.0000,360.0000 1361.0000,323.0000 1338.0000,286.0000  z"
id="path_50" />


<path
style="fill:#97d6aa;stroke:#000000;stroke-width:0.25px;stroke-linecap:butt;stroke-linejoin:miter;stroke-opacity:1"
d="M 81.0000,97.0000 86.0000,115.0000 92.0000,129.0000 95.0000,145.0000 82.0000,163.0000 78.0000,179.0000 78.0000,202.0000 84.0000,230.0000 78.0000,258.0000 98.0000,275.0000 130.0000,277.0000 149.0000,254.0000 183.0000,250.0000 196.0000,225.0000 211.0000,207.0000 222.0000,182.0000 255.0000,181.0000 250.0000,138.0000 266.0000,114.0000 284.0000,110.0000 266.0000,92.0000 238.0000,82.0000 223.0000,57.0000 204.0000,30.0000 180.0000,28.0000 164.0000,39.0000 145.0000,35.0000 121.0000,31.0000 105.0000,46.0000 82.0000,40.0000 95.0000,72.0000  z"
id="path_51" />


<path
style="fill:#ed1803;stroke:#000000;stroke-width:0.25px;stroke-linecap:butt;stroke-linejoin:miter;stroke-opacity:1"
d="M 1281.0000,-5.0000 1316.0000,-5.0000 1361.0000,-14.0000 1391.0000,-5.0000 1388.0000,34.0000 1348.0000,23.0000 1315.0000,56.0000 1281.0000,82.0000 1249.0000,69.0000 1243.0000,39.0000 1205.0000,40.0000 1178.0000,29.0000 1165.0000,4.0000 1193.0000,-16.0000 1218.0000,-13.0000 1246.0000,-16.0000  z"
id="path_52" />


<path
style="fill:#92f651;stroke:#000000;stroke-width:0.25px;stroke-linecap:butt;stroke-linejoin:miter;stroke-opacity:1"
d="M 1488.0000,828.0000 1501.0000,810.0000 1519.0000,794.0000 1529.0000,773.0000 1555.0000,767.0000 1554.0000,734.0000 1577.0000,717.0000 1578.0000,687.0000 1573.0000,659.0000 1547.0000,647.0000 1522.0000,631.0000 1491.0000,612.0000 1468.0000,646.0000 1436.0000,670.0000 1417.0000,692.0000 1397.0000,708.0000 1369.0000,707.0000 1350.0000,739.0000 1386.0000,762.0000 1404.0000,796.0000 1420.0000,826.0000 1448.0000,827.0000 1469.0000,826.0000  z"
id="path_53" />


<path
style="fill:#953870;stroke:#000000;stroke-width:0.25px;stroke-linecap:butt;stroke-linejoin:miter;stroke-opacity:1"
d="M 36.0000,842.0000 43.0000,815.0000 65.0000,794.0000 94.0000,775.0000 114.0000,752.0000 148.0000,754.0000 182.0000,763.0000 198.0000,792.0000 208.0000,821.0000 228.0000,831.0000 247.0000,830.0000 267.0000,847.0000 248.0000,885.0000 255.0000,922.0000 228.0000,918.0000 202.0000,918.0000 178.0000,903.0000 155.0000,924.0000 133.0000,921.0000 112.0000,924.0000 93.0000,923.0000 78.0000,912.0000 52.0000,912.0000 32.0000,889.0000 56.0000,865.0000  z"
id="path_54" />


<path
style="fill:#c9d895;stroke:#000000;stroke-width:0.25px;stroke-linecap:butt;stroke-linejoin:miter;stroke-opacity:1"
d="M 1382.0000,184.0000 1401.0000,168.0000 1414.0000,137.0000 1437.0000,111.0000 1457.0000,110.0000 1461.0000,82.0000 1486.0000,98.0000 1530.0000,95.0000 1568.0000,70.0000 1580.0000,115.0000 1585.0000,159.0000 1595.0000,190.0000 1583.0000,232.0000 1573.0000,283.0000 1544.0000,325.0000 1500.0000,332.0000 1467.0000,307.0000 1426.0000,290.0000 1397.0000,260.0000 1358.0000,254.0000 1355.0000,219.0000 1376.0000,204.0000  z"
id="path_55" />


<path
style="fill:#8f3e09;stroke:#000000;stroke-width:0.25px;stroke-linecap:butt;stroke-linejoin:miter;stroke-opacity:1"
d="M 1230.0000,1021.0000 1250.0000,1019.0000 1259.0000,1004.0000 1277.0000,1005.0000 1291.0000,1012.0000 1314.0000,1008.0000 1344.0000,1012.0000 1377.0000,1025.0000 1408.0000,1030.0000 1425.0000,1010.0000 1402.0000,988.0000 1436.0000,965.0000 1400.0000,948.0000 1394.0000,909.0000 1369.0000,904.0000 1340.0000,904.0000 1308.0000,910.0000 1277.0000,917.0000 1252.0000,923.0000 1230.0000,940.0000 1225.0000,972.0000 1205.0000,976.0000 1181.0000,989.0000 1183.0000,1017.0000 1210.0000,1007.0000  z"
id="path_56" />


<path
style="fill:#efc8cf;stroke:#000000;stroke-width:0.25px;stroke-linecap:butt;stroke-linejoin:miter;stroke-opacity:1"
d="M 76.0000,502.0000 80.0000,533.0000 109.0000,538.0000 129.0000,557.0000 126.0000,592.0000 139.0000,631.0000 141.0000,668.0000 170.0000,689.0000 155.0000,720.0000 148.0000,754.0000 114.0000,752.0000 94.0000,775.0000 65.0000,794.0000 35.0000,789.0000 23.0000,769.0000 -6.0000,764.0000 -3.0000,744.0000 -21.0000,740.0000 -25.0000,713.0000 -21.0000,681.0000 -14.0000,642.0000 -42.0000,605.0000 -8.0000,584.0000 9.0000,558.0000 31.0000,533.0000 58.0000,522.0000  z"
id="path_57" />


<path
style="fill:#cd769e;stroke:#000000;stroke-width:0.25px;stroke-linecap:butt;stroke-linejoin:miter;stroke-opacity:1"
d="M -20.0000,309.0000 -17.0000,330.0000 -2.0000,347.0000 -15.0000,373.0000 -12.0000,400.0000 8.0000,416.0000 29.0000,434.0000 34.0000,467.0000 45.0000,500.0000 76.0000,502.0000 102.0000,498.0000 122.0000,487.0000 101.0000,456.0000 100.0000,425.0000 106.0000,400.0000 124.0000,375.0000 124.0000,345.0000 130.0000,312.0000 130.0000,277.0000 98.0000,275.0000 78.0000,258.0000 55.0000,249.0000 17.0000,244.0000 -2.0000,267.0000 -3.0000,293.0000  z"
id="path_58" />


<path
style="fill:#187e14;stroke:#000000;stroke-width:0.25px;stroke-linecap:butt;stroke-linejoin:miter;stroke-opacity:1"
d="M 1578.0000,416.0000 1585.0000,389.0000 1568.0000,399.0000 1553.0000,412.0000 1533.0000,428.0000 1503.0000,436.0000 1485.0000,467.0000 1463.0000,494.0000 1434.0000,503.0000 1460.0000,531.0000 1467.0000,575.0000 1491.0000,612.0000 1522.0000,631.0000 1547.0000,647.0000 1573.0000,659.0000 1594.0000,637.0000 1579.0000,606.0000 1604.0000,576.0000 1578.0000,553.0000 1578.0000,517.0000 1595.0000,491.0000 1577.0000,462.0000 1592.0000,439.0000  z"
id="path_59" />


<path
style="fill:#b7ee26;stroke:#000000;stroke-width:0.25px;stroke-linecap:butt;stroke-linejoin:miter;stroke-opacity:1"
d="M 229.0000,1025.0000 266.0000,1014.0000 255.0000,979.0000 240.0000,951.0000 255.0000,922.0000 228.0000,918.0000 202.0000,918.0000 178.0000,903.0000 155.0000,924.0000 133.0000,921.0000 112.0000,924.0000 93.0000,923.0000 78.0000,912.0000 52.0000,912.0000 70.0000,934.0000 66.0000,966.0000 43.0000,1000.0000 54.0000,1027.0000 79.0000,1002.0000 106.0000,1025.0000 133.0000,1010.0000 162.0000,1025.0000 194.0000,1034.0000 204.0000,1002.0000 215.0000,1015.0000  z"
id="path_60" />


<path
style="fill:#dabc8a;stroke:#000000;stroke-width:0.25px;stroke-linecap:butt;stroke-linejoin:miter;stroke-opacity:1"
d="M -17.0000,430.0000 -12.0000,400.0000 8.0000,416.0000 29.0000,434.0000 34.0000,467.0000 45.0000,500.0000 76.0000,502.0000 58.0000,522.0000 31.0000,533.0000 9.0000,558.0000 -8.0000,584.0000 -24.0000,552.0000 -27.0000,522.0000 -6.0000,506.0000 -1.0000,478.0000 -17.0000,456.0000  z"
id="path_61" />


<path
style="fill:#3a90c3;stroke:#000000;stroke-width:0.25px;stroke-linecap:butt;stroke-linejoin:miter;stroke-opacity:1"
d="M 1488.0000,828.0000 1501.0000,810.0000 1519.0000,794.0000 1529.0000,773.0000 1541.0000,797.0000 1563.0000,794.0000 1572.0000,820.0000 1592.0000,834.0000 1612.0000,843.0000 1627.0000,863.0000 1613.0000,897.0000 1632.0000,930.0000 1619.0000,949.0000 1597.0000,961.0000 1576.0000,950.0000 1551.0000,961.0000 1530.0000,972.0000 1500.0000,962.0000 1467.0000,961.0000 1436.0000,965.0000 1400.0000,948.0000 1394.0000,909.0000 1378.0000,878.0000 1400.0000,853.0000 1420.0000,826.0000 1448.0000,827.0000 1469.0000,826.0000  z"
id="path_62" />


<path
style="fill:#b10641;stroke:#000000;stroke-width:0.25px;stroke-linecap:butt;stroke-linejoin:miter;stroke-opacity:1"
d="M 81.0000,97.0000 86.0000,115.0000 92.0000,129.0000 95.0000,145.0000 82.0000,163.0000 78.0000,179.0000 78.0000,202.0000 84.0000,230.0000 78.0000,258.0000 55.0000,249.0000 17.0000,244.0000 -14.0000,218.0000 0.0000,191.0000 -8.0000,168.0000 -23.0000,147.0000 -4.0000,121.0000 -10.0000,83.0000 -28.0000,45.0000 6.0000,25.0000 34.0000,23.0000 46.0000,3.0000 59.0000,30.0000 82.0000,40.0000 95.0000,72.0000  z"
id="path_63" />


<path
style="fill:#6eb598;stroke:#000000;stroke-width:0.25px;stroke-linecap:butt;stroke-linejoin:miter;stroke-opacity:1"
d="M 103.0000,-6.0000 129.0000,-7.0000 151.0000,-5.0000 171.0000,-9.0000 199.0000,-5.0000 204.0000,30.0000 180.0000,28.0000 164.0000,39.0000 145.0000,35.0000 121.0000,31.0000 105.0000,46.0000 82.0000,40.0000 59.0000,30.0000 46.0000,3.0000 58.0000,-22.0000 88.0000,-35.0000  z"
id="path_64" />


<path
style="fill:#8a2794;stroke:#000000;stroke-width:0.25px;stroke-linecap:butt;stroke-linejoin:miter;stroke-opacity:1"
d="M 1424.0000,35.0000 1441.0000,58.0000 1461.0000,82.0000 1486.0000,98.0000 1530.0000,95.0000 1568.0000,70.0000 1534.0000,56.0000 1539.0000,20.0000 1567.0000,-2.0000 1542.0000,-9.0000 1522.0000,-23.0000 1488.0000,-12.0000 1455.0000,-15.0000 1426.0000,-8.0000 1391.0000,-5.0000 1388.0000,34.0000  z"
id="path_65" />


<path
style="fill:#35ab53;stroke:#000000;stroke-width:0.25px;stroke-linecap:butt;stroke-linejoin:miter;stroke-opacity:1"
d="M 36.0000,842.0000 43.0000,815.0000 65.0000,794.0000 35.0000,789.0000 23.0000,769.0000 -6.0000,764.0000 -19.0000,790.0000 -7.0000,811.0000 -11.0000,828.0000 -6.0000,845.0000 -6.0000,868.0000 14.0000,850.0000  z"
id="path_66" />


<path
style="fill:#f5fc28;stroke:#000000;stroke-width:0.25px;stroke-linecap:butt;stroke-linejoin:miter;stroke-opacity:1"
d="M 1578.0000,416.0000 1585.0000,389.0000 1615.0000,400.0000 1601.0000,415.0000 1623.0000,434.0000 1609.0000,464.0000 1629.0000,491.0000 1614.0000,521.0000 1602.0000,545.0000 1604.0000,576.0000 1578.0000,553.0000 1578.0000,517.0000 1595.0000,491.0000 1577.0000,462.0000 1592.0000,439.0000  z"
id="path_67" />


<path
style="fill:#06f750;stroke:#000000;stroke-width:0.25px;stroke-linecap:butt;stroke-linejoin:miter;stroke-opacity:1"
d="M -14.0000,218.0000 17.0000,244.0000 -2.0000,267.0000 -24.0000,251.0000  z"
id="path_68" />


<path
style="fill:#5823d3;stroke:#000000;stroke-width:0.25px;stroke-linecap:butt;stroke-linejoin:miter;stroke-opacity:1"
d="M 1436.0000,965.0000 1467.0000,961.0000 1500.0000,962.0000 1530.0000,972.0000 1551.0000,961.0000 1576.0000,950.0000 1597.0000,961.0000 1591.0000,993.0000 1591.0000,1021.0000 1568.0000,1015.0000 1546.0000,1030.0000 1529.0000,1004.0000 1501.0000,1009.0000 1473.0000,1005.0000 1446.0000,1030.0000 1425.0000,1010.0000 1402.0000,988.0000  z"
id="path_69" />


<path
style="fill:#ae359a;stroke:#000000;stroke-width:0.25px;stroke-linecap:butt;stroke-linejoin:miter;stroke-opacity:1"
d="M 1570.0000,360.0000 1585.0000,389.0000 1615.0000,400.0000 1601.0000,368.0000 1606.0000,339.0000 1605.0000,306.0000 1605.0000,269.0000 1617.0000,239.0000 1611.0000,214.0000 1583.0000,232.0000 1573.0000,283.0000 1544.0000,325.0000  z"
id="path_70" />


<path
style="fill:#a831c4;stroke:#000000;stroke-width:0.25px;stroke-linecap:butt;stroke-linejoin:miter;stroke-opacity:1"
d="M 1612.0000,843.0000 1613.0000,821.0000 1613.0000,798.0000 1628.0000,781.0000 1619.0000,749.0000 1602.0000,727.0000 1601.0000,702.0000 1603.0000,681.0000 1593.0000,664.0000 1573.0000,659.0000 1578.0000,687.0000 1577.0000,717.0000 1554.0000,734.0000 1555.0000,767.0000 1529.0000,773.0000 1541.0000,797.0000 1563.0000,794.0000 1572.0000,820.0000 1592.0000,834.0000  z"
id="path_71" />


<path
style="fill:#f4d776;stroke:#000000;stroke-width:0.25px;stroke-linecap:butt;stroke-linejoin:miter;stroke-opacity:1"
d="M 1594.0000,637.0000 1603.0000,608.0000 1621.0000,628.0000 1618.0000,660.0000 1603.0000,681.0000 1593.0000,664.0000 1573.0000,659.0000  z"
id="path_72" />


<path
style="fill:#9bac5b;stroke:#000000;stroke-width:0.25px;stroke-linecap:butt;stroke-linejoin:miter;stroke-opacity:1"
d="M 1579.0000,606.0000 1604.0000,576.0000 1603.0000,608.0000 1594.0000,637.0000  z"
id="path_73" />


<path
style="fill:#e715c6;stroke:#000000;stroke-width:0.25px;stroke-linecap:butt;stroke-linejoin:miter;stroke-opacity:1"
d="M 36.0000,842.0000 56.0000,865.0000 32.0000,889.0000 52.0000,912.0000 70.0000,934.0000 66.0000,966.0000 43.0000,1000.0000 54.0000,1027.0000 16.0000,1036.0000 -22.0000,1003.0000 -21.0000,961.0000 -24.0000,928.0000 -2.0000,903.0000 -6.0000,868.0000 14.0000,850.0000  z"
id="path_74" />


<path
style="fill:#5192ea;stroke:#000000;stroke-width:0.25px;stroke-linecap:butt;stroke-linejoin:miter;stroke-opacity:1"
d="M -28.0000,183.0000 -14.0000,218.0000 0.0000,191.0000 -8.0000,168.0000  z"
id="path_75" />


<path
style="fill:#7c1d39;stroke:#000000;stroke-width:0.25px;stroke-linecap:butt;stroke-linejoin:miter;stroke-opacity:1"
d="M 1583.0000,232.0000 1611.0000,214.0000 1627.0000,187.0000 1616.0000,151.0000 1617.0000,113.0000 1603.0000,85.0000 1580.0000,115.0000 1585.0000,159.0000 1595.0000,190.0000  z"
id="path_76" />


<path
style="fill:#05a1f5;stroke:#000000;stroke-width:0.25px;stroke-linecap:butt;stroke-linejoin:miter;stroke-opacity:1"
d="M -5.0000,-1.0000 2.0000,-28.0000 31.0000,-17.0000 58.0000,-22.0000 46.0000,3.0000 34.0000,23.0000 6.0000,25.0000 -28.0000,45.0000 -29.0000,12.0000  z"
id="path_77" />


<path
style="fill:#441ee3;stroke:#000000;stroke-width:0.25px;stroke-linecap:butt;stroke-linejoin:miter;stroke-opacity:1"
d="M 1568.0000,70.0000 1580.0000,115.0000 1603.0000,85.0000 1620.0000,59.0000 1602.0000,49.0000 1609.0000,39.0000 1609.0000,19.0000 1617.0000,4.0000 1596.0000,-5.0000 1567.0000,-2.0000 1539.0000,20.0000 1534.0000,56.0000  z"
id="path_78" />


<path
style="fill:#c5df22;stroke:#000000;stroke-width:0.25px;stroke-linecap:butt;stroke-linejoin:miter;stroke-opacity:1"
d="M 1597.0000,961.0000 1619.0000,949.0000 1630.0000,981.0000 1617.0000,1012.0000 1591.0000,1021.0000 1591.0000,993.0000  z"
id="path_79" />


<path
style="fill:#64f824;stroke:#000000;stroke-width:0.25px;stroke-linecap:butt;stroke-linejoin:miter;stroke-opacity:1"
d="M 1657.0000,0.0000 1673.0000,-30.0000 1686.0000,0.0000 1674.0000,28.0000  z"
id="path_80" />

</svg>
