{
	"asset":{
		"generator":"Khronos glTF Blender I/O v3.6.27",
		"version":"2.0"
	},
	"scene":0,
	"scenes":[
		{
			"name":"Scene",
			"nodes":[
				0,
				1
			]
		}
	],
	"nodes":[
		{
			"mesh":0,
			"name":"Plane",
			"scale":[
				9.679927825927734,
				9.679927825927734,
				9.679927825927734
			]
		},
		{
			"mesh":1,
			"name":"Plane.001",
			"scale":[
				9.679927825927734,
				9.679927825927734,
				9.679927825927734
			]
		}
	],
	"materials":[
		{
			"doubleSided":true,
			"name":"blue",
			"pbrMetallicRoughness":{
				"baseColorFactor":[
					0.0788118913769722,
					0.09080322086811066,
					0.8000000715255737,
					1
				],
				"metallicFactor":0,
				"roughnessFactor":0.5
			}
		},
		{
			"doubleSided":true,
			"name":"yellow",
			"pbrMetallicRoughness":{
				"baseColorFactor":[
					0.8000000715255737,
					0.6484528183937073,
					0.21441282331943512,
					1
				],
				"metallicFactor":0,
				"roughnessFactor":0.5
			}
		},
		{
			"doubleSided":true,
			"name":"red",
			"pbrMetallicRoughness":{
				"baseColorFactor":[
					0.8000000715255737,
					0.014756562188267708,
					0,
					1
				],
				"metallicFactor":0,
				"roughnessFactor":0.5
			}
		},
		{
			"doubleSided":true,
			"name":"pink",
			"pbrMetallicRoughness":{
				"baseColorFactor":[
					1,
					0.22833290696144104,
					0.8142856955528259,
					1
				],
				"metallicFactor":0,
				"roughnessFactor":0.5
			}
		}
	],
	"meshes":[
		{
			"name":"Plane",
			"primitives":[
				{
					"attributes":{
						"POSITION":0,
						"NORMAL":1,
						"TEXCOORD_0":2
					},
					"indices":3
				}
			]
		},
		{
			"name":"Plane.001",
			"primitives":[
				{
					"attributes":{
						"POSITION":4,
						"NORMAL":5
					},
					"indices":6,
					"material":0
				},
				{
					"attributes":{
						"POSITION":7,
						"NORMAL":8
					},
					"indices":9,
					"material":1
				},
				{
					"attributes":{
						"POSITION":10,
						"NORMAL":11
					},
					"indices":12,
					"material":2
				},
				{
					"attributes":{
						"POSITION":13,
						"NORMAL":14
					},
					"indices":15,
					"material":3
				}
			]
		}
	],
	"accessors":[
		{
			"bufferView":0,
			"componentType":5126,
			"count":4,
			"max":[
				1,
				0,
				1
			],
			"min":[
				-1,
				0,
				-1
			],
			"type":"VEC3"
		},
		{
			"bufferView":1,
			"componentType":5126,
			"count":4,
			"type":"VEC3"
		},
		{
			"bufferView":2,
			"componentType":5126,
			"count":4,
			"type":"VEC2"
		},
		{
			"bufferView":3,
			"componentType":5123,
			"count":6,
			"type":"SCALAR"
		},
		{
			"bufferView":4,
			"componentType":5126,
			"count":30,
			"max":[
				0.9983444213867188,
				0,
				0.99985271692276
			],
			"min":[
				-0.9987562298774719,
				0,
				-0.9983620047569275
			],
			"type":"VEC3"
		},
		{
			"bufferView":5,
			"componentType":5126,
			"count":30,
			"type":"VEC3"
		},
		{
			"bufferView":6,
			"componentType":5123,
			"count":30,
			"type":"SCALAR"
		},
		{
			"bufferView":7,
			"componentType":5126,
			"count":9,
			"max":[
				0.9959911108016968,
				0,
				0.9319157004356384
			],
			"min":[
				-0.8204785585403442,
				0,
				-0.9984661936759949
			],
			"type":"VEC3"
		},
		{
			"bufferView":8,
			"componentType":5126,
			"count":9,
			"type":"VEC3"
		},
		{
			"bufferView":9,
			"componentType":5123,
			"count":9,
			"type":"SCALAR"
		},
		{
			"bufferView":10,
			"componentType":5126,
			"count":12,
			"max":[
				0.9991991519927979,
				0,
				0.993834912776947
			],
			"min":[
				-0.9939486980438232,
				0,
				-0.9996840953826904
			],
			"type":"VEC3"
		},
		{
			"bufferView":11,
			"componentType":5126,
			"count":12,
			"type":"VEC3"
		},
		{
			"bufferView":12,
			"componentType":5123,
			"count":12,
			"type":"SCALAR"
		},
		{
			"bufferView":13,
			"componentType":5126,
			"count":9,
			"max":[
				0.6102092862129211,
				0,
				0.9994781613349915
			],
			"min":[
				-0.9994261264801025,
				0,
				-0.9942334890365601
			],
			"type":"VEC3"
		},
		{
			"bufferView":14,
			"componentType":5126,
			"count":9,
			"type":"VEC3"
		},
		{
			"bufferView":15,
			"componentType":5123,
			"count":9,
			"type":"SCALAR"
		}
	],
	"bufferViews":[
		{
			"buffer":0,
			"byteLength":48,
			"byteOffset":0,
			"target":34962
		},
		{
			"buffer":0,
			"byteLength":48,
			"byteOffset":48,
			"target":34962
		},
		{
			"buffer":0,
			"byteLength":32,
			"byteOffset":96,
			"target":34962
		},
		{
			"buffer":0,
			"byteLength":12,
			"byteOffset":128,
			"target":34963
		},
		{
			"buffer":0,
			"byteLength":360,
			"byteOffset":140,
			"target":34962
		},
		{
			"buffer":0,
			"byteLength":360,
			"byteOffset":500,
			"target":34962
		},
		{
			"buffer":0,
			"byteLength":60,
			"byteOffset":860,
			"target":34963
		},
		{
			"buffer":0,
			"byteLength":108,
			"byteOffset":920,
			"target":34962
		},
		{
			"buffer":0,
			"byteLength":108,
			"byteOffset":1028,
			"target":34962
		},
		{
			"buffer":0,
			"byteLength":18,
			"byteOffset":1136,
			"target":34963
		},
		{
			"buffer":0,
			"byteLength":144,
			"byteOffset":1156,
			"target":34962
		},
		{
			"buffer":0,
			"byteLength":144,
			"byteOffset":1300,
			"target":34962
		},
		{
			"buffer":0,
			"byteLength":24,
			"byteOffset":1444,
			"target":34963
		},
		{
			"buffer":0,
			"byteLength":108,
			"byteOffset":1468,
			"target":34962
		},
		{
			"buffer":0,
			"byteLength":108,
			"byteOffset":1576,
			"target":34962
		},
		{
			"buffer":0,
			"byteLength":18,
			"byteOffset":1684,
			"target":34963
		}
	],
	"buffers":[
		{
			"byteLength":1704,
			"uri":"data:application/octet-stream;base64,"
		}
	]
}
