{
	"asset":{
		"generator":"Khronos glTF Blender I/O v3.6.27",
		"version":"2.0"
	},
	"extensionsUsed":[
		"KHR_materials_transmission",
		"KHR_materials_specular",
		"KHR_materials_ior"
	],
	"scene":0,
	"scenes":[
		{
			"name":"Scene",
			"nodes":[
				0
			]
		}
	],
	"nodes":[
		{
			"mesh":0,
			"name":"Plane",
			"scale":[
				96.59979248046875,
				96.59979248046875,
				96.59979248046875
			]
		}
	],
	"materials":[
		{
			"doubleSided":true,
			"name":"Terreno",
			"pbrMetallicRoughness":{
				"baseColorFactor":[
					0.06460753828287125,
					0.07515779137611389,
					0,
					1
				],
				"metallicFactor":0,
				"roughnessFactor":0.5
			}
		},
		{
			"doubleSided":true,
			"extensions":{
				"KHR_materials_transmission":{
					"transmissionFactor":0.42181819677352905
				},
				"KHR_materials_specular":{
					"specularColorFactor":[
						1.1023703820741577,
						1.1023703820741577,
						1.1023703820741577
					]
				},
				"KHR_materials_ior":{
					"ior":1.4500000476837158
				}
			},
			"name":"Acqua",
			"pbrMetallicRoughness":{
				"baseColorFactor":[
					0.06405182182788849,
					0.07727702707052231,
					0.8000000715255737,
					1
				],
				"metallicFactor":0,
				"roughnessFactor":0.8454545736312866
			}
		}
	],
	"meshes":[
		{
			"name":"Plane",
			"primitives":[
				{
					"attributes":{
						"POSITION":0,
						"NORMAL":1,
						"TEXCOORD_0":2
					},
					"indices":3,
					"material":0
				},
				{
					"attributes":{
						"POSITION":4,
						"NORMAL":5,
						"TEXCOORD_0":6
					},
					"indices":7,
					"material":1
				}
			]
		}
	],
	"accessors":[
		{
			"bufferView":0,
			"componentType":5126,
			"count":4225,
			"max":[
				1,
				0.24458599090576172,
				1
			],
			"min":[
				-1,
				-0.05394335091114044,
				-1
			],
			"type":"VEC3"
		},
		{
			"bufferView":1,
			"componentType":5126,
			"count":4225,
			"type":"VEC3"
		},
		{
			"bufferView":2,
			"componentType":5126,
			"count":4225,
			"type":"VEC2"
		},
		{
			"bufferView":3,
			"componentType":5123,
			"count":24576,
			"type":"SCALAR"
		},
		{
			"bufferView":4,
			"componentType":5126,
			"count":4225,
			"max":[
				1.0660573244094849,
				0.07495804131031036,
				0.9681665301322937
			],
			"min":[
				-0.9592892527580261,
				0.02688584290444851,
				-1.0644166469573975
			],
			"type":"VEC3"
		},
		{
			"bufferView":5,
			"componentType":5126,
			"count":4225,
			"type":"VEC3"
		},
		{
			"bufferView":6,
			"componentType":5126,
			"count":4225,
			"type":"VEC2"
		},
		{
			"bufferView":7,
			"componentType":5123,
			"count":24576,
			"type":"SCALAR"
		}
	],
	"bufferViews":[
		{
			"buffer":0,
			"byteLength":50700,
			"byteOffset":0,
			"target":34962
		},
		{
			"buffer":0,
			"byteLength":50700,
			"byteOffset":50700,
			"target":34962
		},
		{
			"buffer":0,
			"byteLength":33800,
			"byteOffset":101400,
			"target":34962
		},
		{
			"buffer":0,
			"byteLength":49152,
			"byteOffset":135200,
			"target":34963
		},
		{
			"buffer":0,
			"byteLength":50700,
			"byteOffset":184352,
			"target":34962
		},
		{
			"buffer":0,
			"byteLength":50700,
			"byteOffset":235052,
			"target":34962
		},
		{
			"buffer":0,
			"byteLength":33800,
			"byteOffset":285752,
			"target":34962
		},
		{
			"buffer":0,
			"byteLength":49152,
			"byteOffset":319552,
			"target":34963
		}
	],
	"buffers":[
		{
			"byteLength":368704,
			"uri":"data:application/octet-stream;base64,"
		}
	]
}
